<?xml version="1.0" encoding="utf-8"?>
<!-- Generator: Adobe Illustrator 24.1.2, SVG Export Plug-In . SVG Version: 6.00 Build 0)  -->
<svg version="1.1" id="Layer_1" xmlns="http://www.w3.org/2000/svg" xmlns:xlink="http://www.w3.org/1999/xlink" x="0px" y="0px"
	 viewBox="0 0 571.3 216.4" style="enable-background:new 0 0 571.3 216.4;" xml:space="preserve">
<style type="text/css">
	.st0{fill:#FFD700;}
</style>
<g>
	<g>
		<g>
			<g>
				<g>
					<path class="st0" d="M108.6,14.2c-51.9,0-94,42.1-94,94s42.1,94,94,94c51.9,0,94-42.1,94-94S160.6,14.2,108.6,14.2z
						 M67.1,108.2c0-22.9,18.6-41.5,41.5-41.5l0,0c22.9,0,41.5,18.6,41.5,41.5l0,0c0,7.6-2.1,14.7-5.6,20.8H72.7
						C69.2,122.8,67.1,115.8,67.1,108.2L67.1,108.2z"/>
				</g>
			</g>
		</g>
	</g>
	<g>
		<path class="st0" d="M267.6,43.7c0,9.2-7.5,16.7-16.7,16.7c-9.2,0-16.7-7.5-16.7-16.7c0-9.2,7.5-16.7,16.7-16.7
			S267.6,34.5,267.6,43.7z M465.1,27c-9.2,0-16.8,7.5-16.8,16.7c0,9.2,7.5,16.7,16.8,16.7s16.7-7.5,16.7-16.7
			C481.8,34.5,474.3,27,465.1,27z M262.5,69.5h-23.3c-1.3,0-1.4,0.3-1.4,1.4v61.8c0,1.2,0.1,1.4,1.4,1.4h23.3c1.3,0,1.5-0.3,1.5-1.4
			V71C264,69.8,263.8,69.5,262.5,69.5z M349.9,32.5h-25.4c-1.3,0-1.5,0.2-1.5,1.5v39.7c0,0.9-1.5,1.2-2.2,0.4l-44.6-43.8
			c-1.2-1.2-2.8-1-2.8,0.4v102.1c0,1.3,0.1,1.4,1.5,1.4h25.4c1.3,0,1.5-0.1,1.5-1.4V93.4c0-0.9,1.5-1.2,2.2-0.4l44.6,43.5
			c1.3,1.3,2.8,1,2.8-0.6V33.9C351.3,32.6,351.2,32.5,349.9,32.5z M445.8,83.3c0,31.2-19.3,50.9-50.3,50.9h-34
			c-1.3,0-1.5-0.1-1.5-1.4V33.9c0-1.3,0.1-1.5,1.5-1.5h34C427,32.5,445.8,51.4,445.8,83.3z M415.2,83.3c0-15-6.4-22.5-19.3-22.5
			h-5.4c-1.3,0-1.5,0.2-1.5,1.5v42.2c0,1.3,0.1,1.4,1.5,1.4h5.4C408.8,105.9,415.2,98.3,415.2,83.3z M476.7,69.5h-23.3
			c-1.3,0-1.5,0.3-1.5,1.4v61.8c0,1.2,0.1,1.4,1.5,1.4h23.3c1.3,0,1.5-0.3,1.5-1.4V71C478.2,69.8,478,69.5,476.7,69.5z M555.2,110.1
			h-36.3c-1.3,0-1.5-0.2-1.5-1.4V97.6c0-1.3,0.2-1.4,1.5-1.4H553c1.3,0,1.5-0.2,1.5-1.4V74c0-1.3-0.2-1.4-1.5-1.4h-34.2
			c-1.3,0-1.5-0.2-1.5-1.4V58c0-1.3,0.2-1.5,1.5-1.5h35.6c1.3,0,1.5-0.2,1.5-1.5V33.9c0-1.3-0.2-1.5-1.5-1.5H489
			c-1.3,0-1.5,0.2-1.5,1.5v98.8c0,1.3,0.1,1.4,1.5,1.4h66.1c1.3,0,1.5-0.1,1.5-1.4v-21.2C556.6,110.2,556.5,110.1,555.2,110.1z
			 M262.7,187.3c0.3-0.1,0.4-0.3,0.4-0.5v-8.4c0-0.4-0.3-0.5-0.5-0.3c-1.9,1.9-5.1,3.1-8.6,3.1c-6.3,0-10.5-4.1-10.5-10.4
			c0-6.3,4.2-10.4,10.5-10.4c3.5,0,6.6,1.2,8.5,3.1c0.3,0.2,0.5,0.1,0.5-0.3v-8.4c0-0.3,0-0.4-0.4-0.5c-2.6-1.3-6-2.1-9.1-2.1
			c-10.7,0-18.6,7.9-18.6,18.6c0,10.8,7.8,18.6,18.6,18.6C256.6,189.4,260,188.6,262.7,187.3z M277.8,188.7c0.4,0,0.5-0.1,0.6-0.5
			l1.6-4.2c0.1-0.4,0.3-0.5,0.7-0.5h9.9c0.4,0,0.5,0.1,0.6,0.5l1.7,4.2c0.1,0.4,0.3,0.5,0.7,0.5h7.9c0.3,0,0.4-0.1,0.3-0.5
			l-15.5-35.9c-0.2-0.5-1-0.5-1.2,0l-15.5,35.9c-0.1,0.4-0.1,0.5,0.3,0.5H277.8z M282.2,176.9l3.1-8.6c0.1-0.2,0.5-0.2,0.6,0
			l3.3,8.6c0.1,0.4,0,0.5-0.4,0.5h-6.3C282.2,177.4,282.1,177.3,282.2,176.9z M362,188.7c0.5,0,0.5-0.1,0.5-0.5v-10.7
			c0-0.5,0-0.5,0.5-0.5h3.4c8.1,0,13-4.6,13-12.1c0-7.7-4.7-12-13.2-12h-11.4c-0.5,0-0.5,0.1-0.5,0.5v34.8c0,0.5,0,0.5,0.5,0.5H362z
			 M362.5,169.3v-8.9c0-0.5,0-0.5,0.5-0.5h2.5c3.6,0,5.6,1.7,5.6,4.9c0,3.3-1.8,5-5.4,5H363C362.6,169.9,362.5,169.8,362.5,169.3z
			 M428.2,188.7c0.5,0,0.5-0.1,0.5-0.5v-11.8c0-0.7,0.5-0.7,1-0.1l8.9,11.9c0.4,0.5,0.4,0.5,0.9,0.5h8.6c0.4,0,0.5-0.2,0.2-0.5
			l-10.1-12.9c-0.1-0.1-0.1-0.4,0.1-0.5c4.6-1.5,7.5-5.5,7.5-10.6c0-7.4-5-11.3-14.4-11.3h-10.3c-0.5,0-0.5,0.1-0.5,0.5v34.8
			c0,0.5,0,0.5,0.5,0.5L428.2,188.7L428.2,188.7z M428.7,169.1v-8.9c0-0.5,0-0.5,0.5-0.5h2.7c3.6,0,5.5,1.7,5.5,5s-1.8,4.9-5.4,4.9
			h-2.8C428.8,169.6,428.7,169.6,428.7,169.1z M480,178.5c0-11.9-15.6-10.5-15.6-16.1c0-1.9,1.4-3.1,3.6-3.1c2.4,0,3.9,1.5,5.1,3.2
			c0.2,0.3,0.4,0.3,0.8,0.1l5.6-3c0.4-0.3,0.4-0.5,0.2-0.9c-1.9-4-6.3-6.6-12-6.6c-7.2,0-11.9,4.4-11.9,10.3
			c0,11.7,15.5,10.1,15.5,16.4c0,2.1-1.6,3.4-3.9,3.4c-2.7,0-4.4-1.5-5.8-4.2c-0.2-0.4-0.4-0.4-0.7-0.1l-6.1,3.3
			c-0.4,0.2-0.4,0.4-0.2,0.9c2,4.4,6.8,7.4,13.2,7.4C475.9,189.4,480,184.4,480,178.5z M343.6,153.2c0-0.1,0-0.1,0-0.2
			c0-0.2-0.1-0.3-0.4-0.3c-0.2,0-0.4,0.1-0.5,0.3c-0.2,0.3-0.5,0.6-0.8,0.9c-1.5,1.8-14.5,16.9-15,17.4c-0.1,0.1-0.2,0.1-0.3,0.1
			s-0.2-0.1-0.3-0.2c-0.9-1-14.3-16.6-15.6-18.1c-0.1-0.1-0.1-0.1-0.2-0.2c-0.1-0.1-0.3-0.1-0.5-0.1s-0.2,0.2-0.2,0.4
			c0,11.9,0,23.8,0,35.7c0,0.1,0,0.2,0,0.3c0,0.1,0.1,0.2,0.2,0.2c0.1,0,0.2,0,0.3,0c2.2,0,4.5,0,6.7,0c0.1,0,0.2,0,0.3,0
			c0.1,0,0.2-0.1,0.2-0.2c0-0.1,0-0.3,0-0.4c0-5.1,0-10.1,0-15.2c0-0.1,0-0.1,0-0.1c0-0.1,0.1-0.2,0.2-0.3c0.2-0.1,0.4,0,0.6,0.2
			c0.5,0.6,5.7,6.7,7.7,9c0.3,0.3,0.9,0.4,1.2,0c0.2-0.2,7.6-8.9,7.8-9.2c0.1-0.1,0.3-0.2,0.5-0.1c0.2,0.1,0.2,0.2,0.2,0.4
			c0,0,0,0.1,0,0.1c0,5.1,0,10.2,0,15.2c0,0.5,0,0.6,0.6,0.6c2.2,0,4.4,0,6.7,0c0.1,0,0.2,0,0.3,0c0.1,0,0.2-0.1,0.2-0.2
			c0-0.1,0-0.3,0-0.4C343.6,182.9,343.6,159.1,343.6,153.2z M396.1,160.6c0-0.5,0-0.5,0.5-0.5h13.1c0.5,0,0.5-0.1,0.5-0.5v-6.2
			c0-0.5,0-0.5-0.5-0.5h-21.4c-0.5,0-0.5,0.1-0.5,0.5v34.8c0,0.5,0,0.5,0.5,0.5h21.6c0.5,0,0.5-0.1,0.5-0.5V182c0-0.5,0-0.5-0.5-0.5
			h-13.4c-0.5,0-0.5-0.1-0.5-0.5v-6.1c0-0.5,0-0.5,0.5-0.5h12.6c0.5,0,0.5-0.1,0.5-0.5v-6c0-0.5,0-0.5-0.5-0.5h-12.6
			c-0.5,0-0.5-0.1-0.5-0.5L396.1,160.6L396.1,160.6z"/>
	</g>
</g>
</svg>
